<svg xmlns="http://www.w3.org/2000/svg" width="21" height="21" viewBox="0 0 21 21"><title>bar_15.svg</title><rect width="21" height="21" x="0" y="0" fill="none"/><rect width="19.5" height="19.5" x="1" y="1" fill="#bbb" stroke="#bbb" stroke-width="2" rx="9.75" ry="9.75" style="stroke-linejoin:round;stroke-miterlimit:4"/><rect width="19.5" height="19.5" x="1" y="1" fill="#fff" rx="9.75" ry="9.75"/><path fill="#d97200" d="M7.5,1c-2,0-7,0.25-6.5,0.75L7,8v4	c0,1-3,0.5-3,2h7c0-1.5-3-1-3-2V8l6-6.25C14.5,1.25,9.5,1,7.5,1z M7.5,2c2.5,0,4.75,0.25,4.75,0.25L11.5,3h-8L2.75,2.25	C2.75,2.25,5,2,7.5,2z" transform="translate(3 3)"/></svg>