<svg xmlns="http://www.w3.org/2000/svg" width="21" height="21" viewBox="0 0 21 21"><title>campsite_15.svg</title><rect width="21" height="21" x="0" y="0" fill="none"/><rect width="19" height="19" x="1" y="1" fill="#bbb" stroke="#bbb" stroke-width="2" rx="9.5" ry="9.5" style="stroke-linejoin:round;stroke-miterlimit:4"/><rect width="19" height="19" x="1" y="1" fill="#fff" rx="9.5" ry="9.5"/><path fill="#725a50" d="M7,1.5	l-5.5,9H1c-1,0-1,1-1,1v1c0,0,0,1,1,1h13c1,0,1-1,1-1v-1c0,0,0-1-1-1h-0.5L8,1.5C7.8,1.1,7.2,1.1,7,1.5z M7.5,5l3.2,5.5H4.2L7.5,5z" transform="translate(3 3)"/></svg>