<svg xmlns="http://www.w3.org/2000/svg" width="21" height="21" viewBox="0 0 21 21"><title>hospital_15.svg</title><rect width="21" height="21" x="0" y="0" fill="none"/><rect width="19" height="19" x="1" y="1" fill="#bbb" stroke="#bbb" stroke-width="2" rx="9.5" ry="9.5" style="stroke-linejoin:round;stroke-miterlimit:4"/><rect width="19" height="19" x="1" y="1" fill="#fff" rx="9.5" ry="9.5"/><path fill="#ba3827" d="M7,1C6.4,1,6,1.4,6,2v4H2C1.4,6,1,6.4,1,7v1	c0,0.6,0.4,1,1,1h4v4c0,0.6,0.4,1,1,1h1c0.6,0,1-0.4,1-1V9h4c0.6,0,1-0.4,1-1V7c0-0.6-0.4-1-1-1H9V2c0-0.6-0.4-1-1-1H7z" transform="translate(3 3)"/></svg>