<svg xmlns="http://www.w3.org/2000/svg" width="20" height="20" viewBox="0 0 20 20"><title>school_15.svg</title><rect width="20" height="20" x="0" y="0" fill="none"/><rect width="19" height="19" x="0" y="0" fill="#bbb" stroke="#bbb" stroke-width="1" rx="9.5" ry="9.5" style="stroke-linejoin:round;stroke-miterlimit:4"/><rect width="19" height="19" x="0" y="0" fill="#fff" rx="9.5" ry="9.5"/><path fill="#725a50" d="M11,13v-1h2v-1H9.5v-1H13V9h-2V8h2V7h-2V6h2V5H9.5V4H13V3h-2V2h2V1H8v13h5v-1H11z M6,11H2V1h4V11z M6,12l-2,2l-2-2H6z" transform="translate(2 2)"/></svg>