<svg xmlns="http://www.w3.org/2000/svg" width="21" height="21" viewBox="0 0 21 21"><title>suitcase_15.svg</title><rect width="21" height="21" x="0" y="0" fill="none"/><rect width="19" height="19" x="1" y="1" fill="#bbb" stroke="#bbb" stroke-width="2" rx="9.5" ry="9.5" style="stroke-linejoin:round;stroke-miterlimit:4"/><rect width="19" height="19" x="1" y="1" fill="#fff" rx="9.5" ry="9.5"/><path fill="#5d60be" d="M11,4V2c0-1-1-1-1-1H5.0497	c0,0-1.1039,0.0015-1.0497,1v2H2c0,0-1,0-1,1v7c0,1,1,1,1,1h11c0,0,1,0,1-1V5c0-1-1-1-1-1H11z M5.5,2.5h4V4h-4V2.5z" transform="translate(3 3)"/></svg>