<svg xmlns="http://www.w3.org/2000/svg" width="17" height="17" viewBox="0 0 17 17"><title>telephone_11.svg</title><rect width="17" height="17" x="0" y="0" fill="none"/><rect width="15" height="15" x="1" y="1" fill="#bbb" stroke="#bbb" stroke-width="2" rx="7.5" ry="7.5" style="stroke-linejoin:round;stroke-miterlimit:4"/><rect width="15" height="15" x="1" y="1" fill="#fff" rx="7.5" ry="7.5"/><path fill="#725a50" d="M3.57,5.88c-0.1423,0.1441-0.1423,0.3759,0,0.52L4,6.84L2.24,8.62L2,8.41c-0.2889-0.2592-0.4737-0.6146-0.52-1v-1	c0.0463-0.3854,0.2311-0.7408,0.52-1L2.29,5L5,2.31l0.26-0.26c0.2592-0.2889,0.6146-0.4737,1-0.52h1	c0.3854,0.0463,0.7408,0.2311,1,0.52L8.6,2.26L6.84,4L6.4,3.57c-0.1441-0.1423-0.3759-0.1423-0.52,0L3.57,5.88z M3.48,8.88L3,9.4	c0.281,0.2642,0.719,0.2642,1,0l0.74-0.74c0.2642-0.281,0.2642-0.719,0-1L4.22,8.18L3.48,8.88z M8.79,3.56L8.08,4.27L7.56,4.8	c0.281,0.2642,0.719,0.2642,1,0l0.71-0.71c0.2642-0.281,0.2642-0.719,0-1L8.79,3.56z" transform="translate(3 3)"/></svg>