<svg xmlns="http://www.w3.org/2000/svg" width="17" height="17" viewBox="0 0 17 17"><title>waste_basket_11.svg</title><rect width="17" height="17" x="0" y="0" fill="none"/><rect width="15" height="15" x="1" y="1" fill="#bbb" stroke="#bbb" stroke-width="2" rx="7.5" ry="7.5" style="stroke-linejoin:round;stroke-miterlimit:4"/><rect width="15" height="15" x="1" y="1" fill="#fff" rx="7.5" ry="7.5"/><path fill="#725a50" d="M9,4l-1.17,7H3.17L2,4H9z M9.25,2.25C9.25,2.3881,9.1381,2.5,9,2.5H2c-0.1381,0-0.25-0.1119-0.25-0.25S1.8619,2,2,2h2V0h3	v0.5l0,0V2h2C9.1381,2,9.25,2.1119,9.25,2.25z M6.5,2V0.5h-2V2H6.5z" transform="translate(3 3)"/></svg>