<svg xmlns="http://www.w3.org/2000/svg" xmlns:xlink="http://www.w3.org/1999/xlink" id="Layer_1" width="11" height="11" x="0" y="0" enable-background="new 0 0 11 11" version="1.1" viewBox="0 0 11 11" xml:space="preserve"><path fill="#FFF" d="M5.5,9.8c-2.4,0-4.2-1.9-4.2-4.2s1.9-4.2,4.2-4.2	s4.2,1.9,4.2,4.2S7.9,9.8,5.5,9.8z" enable-background="new" opacity=".25"/><path fill="#FFF" d="M5.5,9.2c-2.1,0-3.8-1.7-3.8-3.8s1.7-3.8,3.8-3.8	s3.8,1.7,3.8,3.8S7.6,9.2,5.5,9.2z" enable-background="new" opacity=".5"/><path fill="#FFF" d="M5.5,8.8c-1.8,0-3.2-1.5-3.2-3.2s1.5-3.2,3.2-3.2	s3.2,1.5,3.2,3.2S7.3,8.8,5.5,8.8z" enable-background="new" opacity=".75"/><circle cx="5.5" cy="5.5" r="2.8" fill="#FFF"/><circle cx="5.5" cy="5.5" r="2.2"/></svg>