<svg xmlns="http://www.w3.org/2000/svg" xmlns:xlink="http://www.w3.org/1999/xlink" id="Layer_1" width="10" height="10" x="0" y="0" enable-background="new 3 3 10 10" version="1.1" viewBox="3 3 10 10" xml:space="preserve"><path fill="#FFF" d="M8,12c-2.2,0-4-1.8-4-4s1.8-4,4-4s4,1.8,4,4S10.2,12,8,12z" enable-background="new" opacity=".25"/><path fill="#FFF" d="M8,11.5c-1.9,0-3.5-1.6-3.5-3.5S6.1,4.5,8,4.5s3.5,1.6,3.5,3.5	S9.9,11.5,8,11.5z" enable-background="new" opacity=".5"/><path fill="#FFF" d="M8,11c-1.6,0-3-1.4-3-3s1.4-3,3-3s3,1.4,3,3S9.6,11,8,11z" opacity=".75"/><circle cx="8" cy="8" r="2.5" fill="#FFF"/><circle cx="8" cy="8" r="2"/></svg>