<svg xmlns="http://www.w3.org/2000/svg" xmlns:xlink="http://www.w3.org/1999/xlink" id="Layer_1" width="9" height="9" x="0" y="0" enable-background="new 3.5 3.5 9 9" version="1.1" viewBox="3.5 3.5 9 9" xml:space="preserve"><path fill="#FFF" d="M8,11.5c-1.9,0-3.5-1.6-3.5-3.5S6.1,4.5,8,4.5s3.5,1.6,3.5,3.5	S9.9,11.5,8,11.5z" enable-background="new" opacity=".25"/><path fill="#FFF" d="M8,11c-1.7,0-3-1.4-3-3s1.3-3,3-3s3,1.3,3,3S9.6,11,8,11z" enable-background="new" opacity=".5"/><path fill="#FFF" d="M8,10.5c-1.4,0-2.5-1.1-2.5-2.5S6.6,5.5,8,5.5s2.5,1.1,2.5,2.5S9.4,10.5,8,10.5z" opacity=".75"/><circle cx="8" cy="8" r="2" fill="#FFF"/><circle cx="8" cy="8" r="1.5"/></svg>